<svg width="59" height="18" viewBox="0 0 59 18" fill="none" xmlns="http://www.w3.org/2000/svg">
<path d="M13.6479 10.889H14.2299V17H0.873V16.418L9.1083 1.286H7.2459C5.4417 1.286 4.171 1.6061 3.4338 2.2463C2.6966 2.8865 2.328 4.2154 2.328 6.233H1.746V0.704H14.0262V1.286L5.6745 16.418H8.73C9.6418 16.418 10.379 16.3598 10.9416 16.2434C11.5042 16.1076 12.0086 15.8554 12.4548 15.4868C13.2502 14.7884 13.6479 13.2558 13.6479 10.889ZM17.7305 17H17.1485V10.2197H17.7305C17.7305 12.0433 18.3804 13.5953 19.6802 14.8757C20.9994 16.1561 22.5999 16.7963 24.4817 16.7963C25.2577 16.7963 25.8785 16.5732 26.3441 16.127C26.8291 15.6614 27.0716 15.0503 27.0716 14.2937C27.0716 13.4401 26.5187 12.7126 25.4129 12.1112C24.8115 11.8008 23.7736 11.3158 22.2992 10.6562C20.8248 9.9772 19.7869 9.4049 19.1855 8.9393C17.9827 8.0081 17.4492 6.7762 17.585 5.2436C17.7402 3.711 18.3222 2.5276 19.331 1.6934C20.3398 0.839799 21.4747 0.412998 22.7357 0.412998C24.0161 0.412998 25.1607 0.587598 26.1695 0.936798C27.1977 1.2666 27.7797 1.4315 27.9155 1.4315C28.3035 1.4315 28.4975 1.092 28.4975 0.412998H29.0795V5.7383H28.4975C28.4975 4.3415 27.9834 3.2066 26.9552 2.3336C25.927 1.4412 24.6078 0.994999 22.9976 0.994999C22.2798 0.994999 21.7172 1.2084 21.3098 1.6352C20.9024 2.0426 20.6987 2.4985 20.6987 3.0029C20.6987 3.5073 20.7666 3.8953 20.9024 4.1669C21.0382 4.4385 21.271 4.6907 21.6008 4.9235C21.95 5.1369 22.2507 5.3115 22.5029 5.4473C22.7551 5.5831 23.1528 5.7674 23.696 6.0002C24.2586 6.233 24.6466 6.3979 24.86 6.4949C25.927 6.9799 26.5575 7.2709 26.7515 7.3679C26.9455 7.4455 27.2268 7.5813 27.5954 7.7753C27.964 7.9693 28.2356 8.1439 28.4102 8.2991C28.6042 8.4543 28.8467 8.6483 29.1377 8.8811C29.4287 9.1139 29.6421 9.3564 29.7779 9.6086C29.9137 9.8414 30.0495 10.113 30.1853 10.4234C30.4569 11.0442 30.5539 11.7717 30.4763 12.6059C30.3211 14.1773 29.7294 15.3801 28.7012 16.2143C27.6924 17.0291 26.3247 17.4365 24.5981 17.4365C23.0461 17.4365 21.5038 17.0388 19.9712 16.2434C19.4474 15.9718 19.0594 15.836 18.8072 15.836C18.0894 15.836 17.7305 16.224 17.7305 17ZM31.9202 1.286V0.704H40.4465V1.286H39.0206L43.0073 10.2779L44.8697 5.651L42.92 1.286H41.8142V0.704H49.7876V1.286H48.4199L52.3193 10.1615L55.4039 1.286H53.0759V0.704H58.0811V1.286H56.1023L50.6606 17H49.9622L50.0786 16.6799L49.9331 17L45.248 6.4658L41.0285 17H40.3301L33.317 1.286H31.9202Z" fill="white"/>
<path d="M13.601 10.91H14.181V17H0.87V16.42L9.077 1.34H7.221C5.423 1.34 4.15667 1.659 3.422 2.297C2.68733 2.935 2.32 4.25933 2.32 6.27H1.74V0.76H13.978V1.34L5.655 16.42H8.7C9.60867 16.42 10.3433 16.362 10.904 16.246C11.4647 16.1107 11.9673 15.8593 12.412 15.492C13.2047 14.796 13.601 13.2687 13.601 10.91ZM17.6696 17H17.0896V10.243H17.6696C17.6696 12.0603 18.3173 13.607 19.6126 14.883C20.9273 16.159 22.5223 16.797 24.3976 16.797C25.1709 16.797 25.7896 16.5747 26.2536 16.13C26.7369 15.666 26.9786 15.057 26.9786 14.303C26.9786 13.4523 26.4276 12.7273 25.3256 12.128C24.7263 11.8187 23.6919 11.3353 22.2226 10.678C20.7533 10.0013 19.7189 9.431 19.1196 8.967C17.9209 8.039 17.3893 6.81133 17.5246 5.284C17.6793 3.75667 18.2593 2.57733 19.2646 1.746C20.2699 0.895332 21.4009 0.469998 22.6576 0.469998C23.9336 0.469998 25.0743 0.643999 26.0796 0.991999C27.1043 1.32067 27.6843 1.485 27.8196 1.485C28.2063 1.485 28.3996 1.14667 28.3996 0.469998H28.9796V5.777H28.3996C28.3996 4.385 27.8873 3.254 26.8626 2.384C25.8379 1.49467 24.5233 1.05 22.9186 1.05C22.2033 1.05 21.6426 1.26267 21.2366 1.688C20.8306 2.094 20.6276 2.54833 20.6276 3.051C20.6276 3.55367 20.6953 3.94033 20.8306 4.211C20.9659 4.48167 21.1979 4.733 21.5266 4.965C21.8746 5.17767 22.1743 5.35167 22.4256 5.487C22.6769 5.62233 23.0733 5.806 23.6146 6.038C24.1753 6.27 24.5619 6.43433 24.7746 6.531C25.8379 7.01433 26.4663 7.30433 26.6596 7.401C26.8529 7.47833 27.1333 7.61367 27.5006 7.807C27.8679 8.00033 28.1386 8.17433 28.3126 8.329C28.5059 8.48367 28.7476 8.677 29.0376 8.909C29.3276 9.141 29.5403 9.38267 29.6756 9.634C29.8109 9.866 29.9463 10.1367 30.0816 10.446C30.3523 11.0647 30.4489 11.7897 30.3716 12.621C30.2169 14.187 29.6273 15.3857 28.6026 16.217C27.5973 17.029 26.2343 17.435 24.5136 17.435C22.9669 17.435 21.4299 17.0387 19.9026 16.246C19.3806 15.9753 18.9939 15.84 18.7426 15.84C18.0273 15.84 17.6696 16.2267 17.6696 17ZM31.8105 1.34V0.76H40.3075V1.34H38.8865L42.8595 10.301L44.7155 5.69L42.7725 1.34H41.6705V0.76H49.6165V1.34H48.2535L52.1395 10.185L55.2135 1.34H52.8935V0.76H57.8815V1.34H55.9095L50.4865 17H49.7905L49.9065 16.681L49.7615 17L45.0925 6.502L40.8875 17H40.1915L33.2025 1.34H31.8105Z" fill="black"/>
</svg>
